<?xml version="1.0" encoding="UTF-8"?>
<svg version="1.1" xmlns="http://www.w3.org/2000/svg" width="2000" height="1500">
<path d="M0 0 C660 0 1320 0 2000 0 C2000 495 2000 990 2000 1500 C1340 1500 680 1500 0 1500 C0 1005 0 510 0 0 Z " fill="#FEFEFE" transform="translate(0,0)"/>
<path d="M0 0 C1.5828048 -0.00387972 3.16560608 -0.0095106 4.74839926 -0.0167096 C9.06874386 -0.03135002 13.38872202 -0.02136336 17.70905465 -0.0070976 C22.42031303 0.00400749 27.13152267 -0.00822326 31.84277725 -0.01740509 C40.09031441 -0.03028372 48.33774402 -0.02836677 56.58528137 -0.0166254 C68.84979952 0.00078661 81.11423337 -0.00475309 93.37875593 -0.01479231 C115.28520941 -0.0319728 137.19161281 -0.02645071 159.09806526 -0.01143513 C178.26885205 0.00162053 197.43962148 0.00681187 216.6104126 0.00424671 C217.88242981 0.0040863 219.15444701 0.00392588 220.4650102 0.0037606 C225.62864084 0.00309701 230.79227148 0.0023946 235.95590211 0.00163526 C271.9880618 -0.00358964 308.02021295 -0.0016501 344.05236816 0.01660919 C345.0705352 0.01712435 345.0705352 0.01712435 346.10927126 0.01764991 C357.13147099 0.02324822 368.15367053 0.0291826 379.17587007 0.03513897 C422.88839517 0.05873938 466.60088537 0.06493358 510.31341553 0.05452633 C513.07582553 0.05387312 515.83823554 0.0532218 518.60064554 0.05257083 C519.62514934 0.05232927 519.62514934 0.05232927 520.67035017 0.05208284 C528.2347419 0.05030329 535.79913364 0.04858115 543.36352539 0.04692841 C544.0419079 0.04677904 544.72029041 0.04662967 545.41922996 0.04647578 C582.06046756 0.03847228 618.70170065 0.04461981 655.34293747 0.05562443 C659.21225276 0.05677222 663.08156806 0.0579154 666.95088336 0.05905125 C669.51764384 0.0598065 672.08440432 0.06057214 674.6511648 0.06134826 C693.8091331 0.06700494 712.9670927 0.06567774 732.12506104 0.06112003 C753.91016885 0.05601097 775.69524412 0.0618708 797.48034382 0.08201433 C809.67023802 0.09299595 821.86006824 0.0957982 834.04996438 0.0867258 C842.19526858 0.08150191 850.34051808 0.08721575 858.4858108 0.10177914 C863.12466299 0.10977405 867.76338598 0.1131208 872.40223742 0.10320658 C876.63002181 0.09427392 880.85755869 0.09935706 885.08532077 0.11518602 C886.59775093 0.11847523 888.11020274 0.11685743 889.62261838 0.10945753 C903.01366408 0.04882792 916.57703749 1.24553279 928.83294678 7.06307125 C929.57665527 7.40604244 930.32036377 7.74901363 931.08660889 8.10237789 C951.55902545 17.91467899 967.60947982 34.87536879 975.87477583 56.09674883 C980.99824381 70.87871788 981.27382506 84.668231 981.20915222 100.19624996 C981.21304951 102.79315829 981.21869338 105.39006447 981.22592312 107.98696566 C981.23876398 113.61191669 981.23691514 119.23670976 981.22514343 124.86166096 C981.20768631 133.22642611 981.21328771 141.59106817 981.22331034 149.95583989 C981.24046618 164.89918789 981.23498445 179.84246231 981.21995316 194.78580876 C981.20688406 207.86323658 981.20170875 220.94063891 981.20427132 234.01807308 C981.20443173 234.88666338 981.20459215 235.75525367 981.20475742 236.65016488 C981.20542105 240.17635387 981.20612347 243.70254284 981.20688276 247.2287318 C981.21390152 280.28440477 981.19843326 313.3400329 981.17225931 346.39569446 C981.14914551 375.74202814 981.14375664 405.08831255 981.1539917 434.43465328 C981.15659387 441.95017399 981.15917893 449.4656947 981.16158962 456.98121548 C981.16188707 457.90656263 981.16218452 458.83190978 981.16249098 459.78529775 C981.1701116 484.3315844 981.16368855 508.87786704 981.1528936 533.4241519 C981.15174584 536.06642714 981.15060266 538.70870238 981.14946678 541.35097762 C981.14871153 543.10367376 981.14794589 544.85636989 981.14716977 546.60906602 C981.1415193 559.67594794 981.14283608 572.7428171 981.14739799 585.80969906 C981.1525132 600.6723389 981.14662009 615.53493107 981.1265037 630.39755905 C981.11554365 638.70822633 981.1126997 647.01879986 981.12179223 655.32946995 C981.12764951 661.54373867 981.11773509 667.75789024 981.10179258 673.97213918 C981.09775927 676.47932846 981.0987291 678.98653205 981.10531145 681.49371594 C981.14445661 697.80453777 981.18157278 713.85240775 973.95794678 728.87557125 C973.43188843 730.00769039 973.43188843 730.00769039 972.89520264 731.16268063 C962.02086621 753.95682116 943.51790751 767.85783606 920.76654053 777.27400875 C911.12769806 780.54518951 900.7925477 780.7928702 890.71751404 780.74108028 C889.47725725 780.74278913 888.23700047 780.74449798 886.95916015 780.74625862 C883.55656989 780.74896059 880.15421529 780.74279739 876.75165379 780.73270249 C873.06745831 780.72399833 869.38326904 780.72699304 865.69906616 780.72850704 C859.32918799 780.72955152 852.95935106 780.72332085 846.58948326 780.71203136 C837.37993288 780.69571973 828.17040227 780.69056259 818.96083901 780.68805538 C804.01593462 780.68368713 789.07105216 780.67040172 774.12615967 780.65145016 C759.61574411 780.63306878 745.10533453 780.61892335 730.59490967 780.61043453 C729.6992394 780.60990909 728.80356914 780.60938364 727.88075735 780.60884227 C723.38707019 780.60623204 718.89338299 780.60370466 714.39969575 780.60121846 C677.16909728 780.58051307 639.93852374 780.54531134 602.70794678 780.50057125 C603.12511963 780.02861324 603.54229248 779.55665524 603.97210693 779.07039547 C604.51657471 778.44665035 605.06104248 777.82290524 605.62200928 777.18025875 C606.43339355 776.25575924 606.43339355 776.25575924 607.26116943 775.31258297 C610.71155811 770.99115457 611.1696013 766.09597954 611.01654053 760.7388525 C610.41518722 756.37713797 608.54956973 753.10182417 605.22650146 750.21248531 C600.24901553 746.62365643 595.10558399 744.38430842 589.4052124 742.184165 C584.97183188 740.3703176 582.33841278 738.6986887 579.70794678 734.50057125 C579.14544678 731.50057125 579.14544678 731.50057125 579.70794678 728.50057125 C581.88058178 725.92771401 583.68788516 724.01060206 586.70794678 722.50057125 C594.45773341 721.87558846 600.48988906 723.76479303 607.70794678 726.50057125 C608.36794678 724.19057125 609.02794678 721.88057125 609.70794678 719.50057125 C601.32741611 714.53433085 592.22495088 714.18117373 582.70794678 715.50057125 C578.00201442 717.04296191 575.56392039 719.60179896 572.20794678 723.12557125 C569.81526262 728.5091106 569.69428886 733.90913426 571.29779053 739.590415 C573.87060345 745.00873531 578.4989413 747.02775685 583.70794678 749.50057125 C585.5391955 750.39248012 587.36709906 751.29073871 589.19281006 752.19393063 C591.01279073 753.09099162 592.84070591 753.97189972 594.66888428 754.85213375 C599.10461253 757.25814574 599.10461253 757.25814574 600.70794678 759.50057125 C601.39641381 762.56424954 601.30713525 765.4236575 600.70794678 768.50057125 C598.27044678 771.50057125 598.27044678 771.50057125 595.70794678 773.50057125 C595.37794678 773.83057125 595.04794678 774.16057125 594.70794678 774.50057125 C586.22024299 775.20308133 580.01589398 774.91291673 572.70794678 770.50057125 C571.71794678 770.50057125 570.72794678 770.50057125 569.70794678 770.50057125 C568.71794678 772.81057125 567.72794678 775.12057125 566.70794678 777.50057125 C568.35794678 778.16057125 570.00794678 778.82057125 571.70794678 779.50057125 C571.70794678 779.83057125 571.70794678 780.16057125 571.70794678 780.50057125 C565.10794678 780.50057125 558.50794678 780.50057125 551.70794678 780.50057125 C551.70794678 758.72057125 551.70794678 736.94057125 551.70794678 714.50057125 C548.40794678 714.50057125 545.10794678 714.50057125 541.70794678 714.50057125 C541.75338623 716.8975024 541.75338623 716.8975024 541.79974365 719.34285641 C541.94646329 727.27025667 542.08063633 735.19783901 542.20794678 743.12557125 C542.21982403 743.86463585 542.23170128 744.60370045 542.24393845 745.36516094 C542.71733778 775.18113705 542.7945871 804.99374248 542.77044678 834.81307125 C542.76916275 836.41052559 542.76916275 836.41052559 542.76785278 838.04025173 C542.75649183 851.19370863 542.73645925 864.34714071 542.70794678 877.50057125 C544.09070801 877.48391666 544.09070801 877.48391666 545.50140381 877.46692562 C554.21078771 877.36652608 562.9199758 877.2905061 571.62980652 877.24151039 C576.10711458 877.21547372 580.5839424 877.18018521 585.06097412 877.12337399 C589.38578985 877.06884097 593.71014517 877.03910615 598.03527832 877.02618504 C599.68106326 877.01698315 601.32682446 876.99901384 602.97241211 876.97192097 C619.67446114 876.70800426 619.67446114 876.70800426 625.70794678 882.50057125 C629.92570257 886.66143131 632.47577234 890.72396319 632.97537231 896.6987524 C632.98299591 897.90404598 632.99061951 899.10933956 632.99847412 900.35115719 C633.00854996 901.35469234 633.00854996 901.35469234 633.01882935 902.37850094 C633.03775802 904.5807259 633.04173128 906.78264509 633.04388428 908.98494625 C633.05031722 910.52565794 633.05704595 912.06636843 633.0640564 913.6070776 C633.07601737 916.83495061 633.07973859 920.06271671 633.07855225 923.29061031 C633.07834945 927.40730922 633.10561509 931.52331472 633.14009666 935.63984966 C633.16244496 938.82280723 633.16638733 942.00560024 633.16533279 945.1886282 C633.16767824 946.70514718 633.17644169 948.22167144 633.19199753 949.73811245 C633.35752376 967.54542215 633.35752376 967.54542215 626.95779419 974.36574459 C622.05997614 978.92969499 617.50441853 980.74865796 610.77391338 980.75784016 C609.57757044 980.76428905 608.38122751 980.77073794 607.14863175 980.77738225 C605.8379486 980.77428505 604.52726545 980.77118785 603.17686462 980.76799679 C601.76756669 980.77173364 600.35827082 980.7763353 598.94897825 980.78172743 C595.07635789 980.79396856 591.20382385 980.79369566 587.33118856 980.79133868 C583.15452006 980.7909308 578.97787934 980.80196697 574.80122375 980.81145382 C566.61830941 980.82807091 558.43542387 980.83356369 550.25249406 980.83467858 C543.601266 980.83562872 536.95004745 980.83973732 530.2988224 980.84607983 C511.44344891 980.86369421 492.58809819 980.87291839 473.7327164 980.87141888 C472.20778088 980.87129901 472.20778088 980.87129901 470.65203857 980.87117672 C469.63417431 980.87109496 468.61631005 980.8710132 467.56760142 980.87092896 C451.07070907 980.87011601 434.57390801 980.88925531 418.07704207 980.91745345 C401.14021277 980.9461753 384.203428 980.95999413 367.26657373 980.9582659 C357.75699879 980.95760175 348.24751955 980.96310481 338.73796654 980.984622 C330.64137626 981.0028246 322.54492508 981.00718873 314.44832321 980.99360316 C310.31768147 980.98706881 306.18730664 980.98697296 302.05669022 981.00430965 C298.27342631 981.02002509 294.49064127 981.01719276 290.70738915 980.99974139 C288.69440918 980.99521493 286.68141444 981.01034082 284.66849202 981.02622068 C275.96988657 980.9597795 270.25601429 980.04863876 263.89544678 973.68807125 C260.02598657 968.04971496 258.33457492 963.24323935 258.30389404 956.40706539 C258.29359917 955.40068272 258.29359917 955.40068272 258.28309631 954.37396908 C258.26494116 952.17766726 258.26864925 949.98208753 258.27435303 947.7857275 C258.26978575 946.24547757 258.26447856 944.70522968 258.25846863 943.1649847 C258.24955969 939.94481253 258.25193513 936.72488866 258.26190186 933.50472164 C258.27338841 929.39466931 258.25317437 925.28547659 258.22398472 921.17553711 C258.20556683 917.99689012 258.20592622 914.81844702 258.21162224 911.63976002 C258.21177477 910.12521757 258.20578684 908.6106607 258.19333076 907.09616947 C258.12859162 897.93526565 258.24861628 890.77439134 264.41888428 883.47713375 C265.24259521 882.80811031 265.24259521 882.80811031 266.08294678 882.12557125 C266.62693115 881.66408688 267.17091553 881.2026025 267.73138428 880.72713375 C272.64608694 877.6772985 277.4075443 877.25385706 283.090271 877.27352047 C284.17674014 877.27315886 284.17674014 877.27315886 285.28515816 877.27278996 C287.61111201 877.27427319 289.93673837 877.28945994 292.26263428 877.30525875 C293.70607347 877.30820227 295.14951479 877.31024081 296.59295654 877.31136227 C301.92298601 877.32181386 307.25296967 877.34973642 312.58294678 877.37557125 C324.50419678 877.41682125 336.42544678 877.45807125 348.70794678 877.50057125 C348.70794678 846.48057125 348.70794678 815.46057125 348.70794678 783.50057125 C350.68794678 783.50057125 352.66794678 783.50057125 354.70794678 783.50057125 C354.87810303 782.87150875 355.04825928 782.24244625 355.22357178 781.59432125 C355.46591553 780.73838375 355.70825928 779.88244625 355.95794678 779.00057125 C356.18997803 778.16525875 356.42200928 777.32994625 356.66107178 776.46932125 C357.99953035 772.67369246 359.90804293 769.10037895 361.70794678 765.50057125 C370.28794678 765.50057125 378.86794678 765.50057125 387.70794678 765.50057125 C388.69794678 767.91369625 389.68794678 770.32682125 390.70794678 772.81307125 C391.02118896 773.56886471 391.33443115 774.32465816 391.65716553 775.10335445 C392.85165521 778.05284337 393.70794678 780.29033245 393.70794678 783.50057125 C397.66794678 783.50057125 401.62794678 783.50057125 405.70794678 783.50057125 C404.77788818 781.42002438 404.77788818 781.42002438 403.82904053 779.29744625 C397.29388432 764.59648306 391.0344072 749.79784357 384.92449951 734.91561031 C381.78315151 727.29125224 378.54204258 719.81008617 374.70794678 712.50057125 C372.33305328 718.1711244 369.95848806 723.84181489 367.58413696 729.51259518 C366.33861355 732.4870384 365.09274599 735.46133731 363.84686279 738.43562984 C358.56685889 751.04296935 358.56685889 751.04296935 353.32122803 763.66463375 C352.85700439 764.78482906 352.39278076 765.90502438 351.91448975 767.059165 C351.08714955 769.05827868 350.26185408 771.05824018 349.43890381 773.059165 C349.08296143 773.91896969 348.72701904 774.77877438 348.36029053 775.66463375 C347.91157593 776.75445553 347.91157593 776.75445553 347.45379639 777.86629391 C346.70794678 779.50057125 346.70794678 779.50057125 345.70794678 780.50057125 C343.11435356 780.58908654 340.54754986 780.6158307 337.95404053 780.5982275 C337.1785939 780.59681255 336.40314728 780.59539761 335.60420227 780.59393978 C333.11791183 780.5883247 330.63171017 780.57576971 328.14544678 780.56307125 C326.46380745 780.55805819 324.78216672 780.55349495 323.1005249 780.54939938 C318.96963112 780.53835038 314.83880402 780.5210757 310.70794678 780.50057125 C311.33596827 776.77020257 312.39650646 773.56059866 313.88519287 770.08699703 C314.5612709 768.49977337 314.5612709 768.49977337 315.25100708 766.88048458 C315.98379379 765.18035717 315.98379379 765.18035717 316.73138428 763.44588375 C317.23336334 762.27097378 317.73534241 761.0960638 318.25253296 759.8855505 C319.58534954 756.76618194 320.92389622 753.64930461 322.26367188 750.53291988 C323.61835567 747.37908925 324.96761176 744.22293909 326.31732178 741.0669775 C328.72520241 735.43885149 331.13809584 729.81289041 333.55383301 724.18813229 C334.9402261 720.95966717 336.32444726 717.73027721 337.70794678 714.50057125 C333.74794678 714.50057125 329.78794678 714.50057125 325.70794678 714.50057125 C325.61714844 715.29350582 325.5263501 716.08644039 325.43280029 716.90340328 C324.50144767 721.52534653 322.8509544 725.68436964 321.11029053 730.05525875 C320.75656876 730.95680691 320.40284698 731.85835506 320.03840637 732.78722286 C318.91288975 735.65219403 317.7792979 738.51388973 316.64544678 741.37557125 C315.87863477 743.32327699 315.11235279 745.27119149 314.34661865 747.21932125 C312.47319185 751.98217778 310.5925187 756.74211424 308.70794678 761.50057125 C306.61357624 759.40620071 305.99330362 758.07467746 304.92034912 755.35799313 C304.5801474 754.50370724 304.23994568 753.64942135 303.88943481 752.76924801 C303.3471373 751.38328426 303.3471373 751.38328426 302.79388428 749.96932125 C302.41938141 749.02246456 302.04487854 748.07560787 301.6590271 747.10005856 C300.86813936 745.09701822 300.07982602 743.09295978 299.29388428 741.08797359 C298.08689566 738.0106393 296.87072898 734.9370531 295.65325928 731.8638525 C294.88708588 729.92005815 294.12144281 727.97605467 293.35638428 726.03182125 C292.99080414 725.10784542 292.625224 724.18386959 292.24856567 723.23189449 C291.91466827 722.3776086 291.58077087 721.52332272 291.23675537 720.64314938 C290.94078461 719.88973263 290.64481384 719.13631588 290.33987427 718.36006832 C289.70794678 716.50057125 289.70794678 716.50057125 289.70794678 714.50057125 C285.74794678 714.50057125 281.78794678 714.50057125 277.70794678 714.50057125 C278.4839624 716.28334469 279.25997803 718.06611813 280.05950928 719.902915 C283.62156854 728.09670929 287.16887921 736.29682186 290.70794678 744.50057125 C291.19880768 745.63788692 291.19880768 745.63788692 291.69958496 746.79817867 C293.66698642 751.35882531 295.62751604 755.92233427 297.57946777 760.48961544 C298.20619439 761.95386784 298.83481328 763.41731178 299.46533203 764.87993526 C300.3495581 766.93230006 301.22686446 768.98748893 302.10247803 771.04354 C302.85815063 772.80734005 302.85815063 772.80734005 303.62908936 774.60677242 C304.70794678 777.50057125 304.70794678 777.50057125 304.70794678 780.50057125 C264.41791504 780.54638045 224.1278867 780.58160658 183.83783411 780.60270191 C179.07782279 780.60520323 174.31781153 780.60779188 169.55780029 780.61043453 C168.1363921 780.61122146 168.1363921 780.61122146 166.68626859 780.61202429 C151.3564422 780.62071943 136.02663086 780.63648449 120.69681338 780.65487684 C104.95906884 780.6736007 89.22133217 780.68469323 73.48357695 780.68874824 C63.77786964 780.69148814 54.07220487 780.70013213 44.36651065 780.71640418 C37.7048261 780.72700175 31.04316344 780.73016561 24.38147108 780.72757401 C20.54195121 780.72629702 16.70250553 780.72821102 12.86299896 780.7389822 C8.68987318 780.75060309 4.51690366 780.74652534 0.34376526 780.74108028 C-0.85568936 780.74690597 -2.05514398 780.75273165 -3.29094571 780.75873387 C-26.4903143 780.67723964 -47.89344551 773.03722104 -64.84967041 756.95467281 C-81.08475347 740.58768657 -90.42358931 718.41473768 -90.5617786 695.32496527 C-90.55766797 694.3493027 -90.55355733 693.37364012 -90.54932213 692.36841202 C-90.5528282 691.29852623 -90.55633428 690.22864044 -90.5599466 689.12633386 C-90.56922647 685.55289176 -90.56434604 681.97961385 -90.55947876 678.40616512 C-90.56321673 675.81357382 -90.56781883 673.22098365 -90.5732094 670.62839526 C-90.58348848 664.99742451 -90.58635685 659.36648812 -90.58429718 653.73550892 C-90.58124176 645.36167083 -90.58958312 636.98787064 -90.60004643 628.61403993 C-90.61937143 612.78636944 -90.62501409 596.95871192 -90.62616055 581.13103101 C-90.62708022 568.90650365 -90.63119998 556.68198135 -90.6375618 544.45745564 C-90.63935693 540.93650189 -90.64113656 537.41554813 -90.64291155 533.89459437 C-90.64335365 533.01923349 -90.64379575 532.14387262 -90.64425124 531.24198565 C-90.65655675 506.62528172 -90.66445266 482.00857955 -90.66356468 457.39187241 C-90.66353352 456.46408297 -90.66350237 455.53629354 -90.66347027 454.58038928 C-90.66330405 449.87814627 -90.66310597 445.17590327 -90.66290085 440.47366027 C-90.66286096 439.53980611 -90.66282107 438.60595196 -90.66277997 437.64379919 C-90.6626991 435.75531918 -90.6626155 433.86683917 -90.66252919 431.97835915 C-90.66130379 402.59926878 -90.67631605 373.22022458 -90.70367432 343.84114742 C-90.73441077 310.820874 -90.75160588 277.80063091 -90.74974787 244.78034228 C-90.74959861 241.25781675 -90.7495012 237.73529123 -90.74943924 234.21276569 C-90.74941593 233.34545431 -90.74939262 232.47814293 -90.74936861 231.58454939 C-90.74930712 217.64172934 -90.76206578 203.69894946 -90.77930377 189.75614135 C-90.79627643 175.73779271 -90.79822129 161.71950268 -90.78508513 147.70114944 C-90.77770699 139.37936338 -90.78131986 131.05775566 -90.80096981 122.73598858 C-90.81441852 116.51323969 -90.80682825 110.29067985 -90.79122336 104.06793972 C-90.78815284 101.55723214 -90.79178773 99.04650514 -90.80294351 96.53582046 C-90.87141621 80.02745254 -90.12447989 64.89886847 -82.66705322 49.81307125 C-82.33004395 49.11520504 -81.99303467 48.41733883 -81.64581299 47.69832516 C-72.92952517 30.37645765 -58.42254471 16.614431 -41.04205322 8.18807125 C-40.41250732 7.87490963 -39.78296143 7.56174801 -39.13433838 7.23909664 C-26.61973494 1.46869651 -13.62806544 -0.09526456 0 0 Z " fill="#FEFEFE" transform="translate(554.2920532226563,259.4994287490845)"/>
<path d="M0 0 C1.5828048 -0.00387972 3.16560608 -0.0095106 4.74839926 -0.0167096 C9.06874386 -0.03135002 13.38872202 -0.02136336 17.70905465 -0.0070976 C22.42031303 0.00400749 27.13152267 -0.00822326 31.84277725 -0.01740509 C40.09031441 -0.03028372 48.33774402 -0.02836677 56.58528137 -0.0166254 C68.84979952 0.00078661 81.11423337 -0.00475309 93.37875593 -0.01479231 C115.28520941 -0.0319728 137.19161281 -0.02645071 159.09806526 -0.01143513 C178.26885205 0.00162053 197.43962148 0.00681187 216.6104126 0.00424671 C217.88242981 0.0040863 219.15444701 0.00392588 220.4650102 0.0037606 C225.62864084 0.00309701 230.79227148 0.0023946 235.95590211 0.00163526 C271.9880618 -0.00358964 308.02021295 -0.0016501 344.05236816 0.01660919 C345.0705352 0.01712435 345.0705352 0.01712435 346.10927126 0.01764991 C357.13147099 0.02324822 368.15367053 0.0291826 379.17587007 0.03513897 C422.88839517 0.05873938 466.60088537 0.06493358 510.31341553 0.05452633 C513.07582553 0.05387312 515.83823554 0.0532218 518.60064554 0.05257083 C519.62514934 0.05232927 519.62514934 0.05232927 520.67035017 0.05208284 C528.2347419 0.05030329 535.79913364 0.04858115 543.36352539 0.04692841 C544.0419079 0.04677904 544.72029041 0.04662967 545.41922996 0.04647578 C582.06046756 0.03847228 618.70170065 0.04461981 655.34293747 0.05562443 C659.21225276 0.05677222 663.08156806 0.0579154 666.95088336 0.05905125 C669.51764384 0.0598065 672.08440432 0.06057214 674.6511648 0.06134826 C693.8091331 0.06700494 712.9670927 0.06567774 732.12506104 0.06112003 C753.91016885 0.05601097 775.69524412 0.0618708 797.48034382 0.08201433 C809.67023802 0.09299595 821.86006824 0.0957982 834.04996438 0.0867258 C842.19526858 0.08150191 850.34051808 0.08721575 858.4858108 0.10177914 C863.12466299 0.10977405 867.76338598 0.1131208 872.40223742 0.10320658 C876.63002181 0.09427392 880.85755869 0.09935706 885.08532077 0.11518602 C886.59775093 0.11847523 888.11020274 0.11685743 889.62261838 0.10945753 C903.01366408 0.04882792 916.57703749 1.24553279 928.83294678 7.06307125 C929.57665527 7.40604244 930.32036377 7.74901363 931.08660889 8.10237789 C951.55902545 17.91467899 967.60947982 34.87536879 975.87477583 56.09674883 C980.99824381 70.87871788 981.27382506 84.668231 981.20915222 100.19624996 C981.21304951 102.79315829 981.21869338 105.39006447 981.22592312 107.98696566 C981.23876398 113.61191669 981.23691514 119.23670976 981.22514343 124.86166096 C981.20768631 133.22642611 981.21328771 141.59106817 981.22331034 149.95583989 C981.24046618 164.89918789 981.23498445 179.84246231 981.21995316 194.78580876 C981.20688406 207.86323658 981.20170875 220.94063891 981.20427132 234.01807308 C981.20443173 234.88666338 981.20459215 235.75525367 981.20475742 236.65016488 C981.20542105 240.17635387 981.20612347 243.70254284 981.20688276 247.2287318 C981.21390152 280.28440477 981.19843326 313.3400329 981.17225931 346.39569446 C981.14914551 375.74202814 981.14375664 405.08831255 981.1539917 434.43465328 C981.15659387 441.95017399 981.15917893 449.4656947 981.16158962 456.98121548 C981.16188707 457.90656263 981.16218452 458.83190978 981.16249098 459.78529775 C981.1701116 484.3315844 981.16368855 508.87786704 981.1528936 533.4241519 C981.15174584 536.06642714 981.15060266 538.70870238 981.14946678 541.35097762 C981.14871153 543.10367376 981.14794589 544.85636989 981.14716977 546.60906602 C981.1415193 559.67594794 981.14283608 572.7428171 981.14739799 585.80969906 C981.1525132 600.6723389 981.14662009 615.53493107 981.1265037 630.39755905 C981.11554365 638.70822633 981.1126997 647.01879986 981.12179223 655.32946995 C981.12764951 661.54373867 981.11773509 667.75789024 981.10179258 673.97213918 C981.09775927 676.47932846 981.0987291 678.98653205 981.10531145 681.49371594 C981.14445661 697.80453777 981.18157278 713.85240775 973.95794678 728.87557125 C973.43188843 730.00769039 973.43188843 730.00769039 972.89520264 731.16268063 C962.02086621 753.95682116 943.51790751 767.85783606 920.76654053 777.27400875 C911.12769806 780.54518951 900.7925477 780.7928702 890.71751404 780.74108028 C889.47725725 780.74278913 888.23700047 780.74449798 886.95916015 780.74625862 C883.55656989 780.74896059 880.15421529 780.74279739 876.75165379 780.73270249 C873.06745831 780.72399833 869.38326904 780.72699304 865.69906616 780.72850704 C859.32918799 780.72955152 852.95935106 780.72332085 846.58948326 780.71203136 C837.37993288 780.69571973 828.17040227 780.69056259 818.96083901 780.68805538 C804.01593462 780.68368713 789.07105216 780.67040172 774.12615967 780.65145016 C759.61574411 780.63306878 745.10533453 780.61892335 730.59490967 780.61043453 C729.6992394 780.60990909 728.80356914 780.60938364 727.88075735 780.60884227 C723.38707019 780.60623204 718.89338299 780.60370466 714.39969575 780.60121846 C677.16909728 780.58051307 639.93852374 780.54531134 602.70794678 780.50057125 C603.12511963 780.02861324 603.54229248 779.55665524 603.97210693 779.07039547 C604.51657471 778.44665035 605.06104248 777.82290524 605.62200928 777.18025875 C606.43339355 776.25575924 606.43339355 776.25575924 607.26116943 775.31258297 C610.71155811 770.99115457 611.1696013 766.09597954 611.01654053 760.7388525 C610.41518722 756.37713797 608.54956973 753.10182417 605.22650146 750.21248531 C600.24901553 746.62365643 595.10558399 744.38430842 589.4052124 742.184165 C584.97183188 740.3703176 582.33841278 738.6986887 579.70794678 734.50057125 C579.14544678 731.50057125 579.14544678 731.50057125 579.70794678 728.50057125 C581.88058178 725.92771401 583.68788516 724.01060206 586.70794678 722.50057125 C594.45773341 721.87558846 600.48988906 723.76479303 607.70794678 726.50057125 C608.36794678 724.19057125 609.02794678 721.88057125 609.70794678 719.50057125 C601.32741611 714.53433085 592.22495088 714.18117373 582.70794678 715.50057125 C578.00201442 717.04296191 575.56392039 719.60179896 572.20794678 723.12557125 C569.81526262 728.5091106 569.69428886 733.90913426 571.29779053 739.590415 C573.87060345 745.00873531 578.4989413 747.02775685 583.70794678 749.50057125 C585.5391955 750.39248012 587.36709906 751.29073871 589.19281006 752.19393063 C591.01279073 753.09099162 592.84070591 753.97189972 594.66888428 754.85213375 C599.10461253 757.25814574 599.10461253 757.25814574 600.70794678 759.50057125 C601.39641381 762.56424954 601.30713525 765.4236575 600.70794678 768.50057125 C598.27044678 771.50057125 598.27044678 771.50057125 595.70794678 773.50057125 C595.37794678 773.83057125 595.04794678 774.16057125 594.70794678 774.50057125 C586.22024299 775.20308133 580.01589398 774.91291673 572.70794678 770.50057125 C571.71794678 770.50057125 570.72794678 770.50057125 569.70794678 770.50057125 C568.71794678 772.81057125 567.72794678 775.12057125 566.70794678 777.50057125 C568.35794678 778.16057125 570.00794678 778.82057125 571.70794678 779.50057125 C571.70794678 779.83057125 571.70794678 780.16057125 571.70794678 780.50057125 C565.10794678 780.50057125 558.50794678 780.50057125 551.70794678 780.50057125 C551.70794678 758.72057125 551.70794678 736.94057125 551.70794678 714.50057125 C548.40794678 714.50057125 545.10794678 714.50057125 541.70794678 714.50057125 C541.75338623 716.8975024 541.75338623 716.8975024 541.79974365 719.34285641 C541.94646329 727.27025667 542.08063633 735.19783901 542.20794678 743.12557125 C542.21982403 743.86463585 542.23170128 744.60370045 542.24393845 745.36516094 C542.71733778 775.18113705 542.7945871 804.99374248 542.77044678 834.81307125 C542.76916275 836.41052559 542.76916275 836.41052559 542.76785278 838.04025173 C542.75649183 851.19370863 542.73645925 864.34714071 542.70794678 877.50057125 C544.09070801 877.48391666 544.09070801 877.48391666 545.50140381 877.46692562 C554.21078771 877.36652608 562.9199758 877.2905061 571.62980652 877.24151039 C576.10711458 877.21547372 580.5839424 877.18018521 585.06097412 877.12337399 C589.38578985 877.06884097 593.71014517 877.03910615 598.03527832 877.02618504 C599.68106326 877.01698315 601.32682446 876.99901384 602.97241211 876.97192097 C619.67446114 876.70800426 619.67446114 876.70800426 625.70794678 882.50057125 C629.92570257 886.66143131 632.47577234 890.72396319 632.97537231 896.6987524 C632.98299591 897.90404598 632.99061951 899.10933956 632.99847412 900.35115719 C633.00854996 901.35469234 633.00854996 901.35469234 633.01882935 902.37850094 C633.03775802 904.5807259 633.04173128 906.78264509 633.04388428 908.98494625 C633.05031722 910.52565794 633.05704595 912.06636843 633.0640564 913.6070776 C633.07601737 916.83495061 633.07973859 920.06271671 633.07855225 923.29061031 C633.07834945 927.40730922 633.10561509 931.52331472 633.14009666 935.63984966 C633.16244496 938.82280723 633.16638733 942.00560024 633.16533279 945.1886282 C633.16767824 946.70514718 633.17644169 948.22167144 633.19199753 949.73811245 C633.35752376 967.54542215 633.35752376 967.54542215 626.95779419 974.36574459 C622.05997614 978.92969499 617.50441853 980.74865796 610.77391338 980.75784016 C609.57757044 980.76428905 608.38122751 980.77073794 607.14863175 980.77738225 C605.8379486 980.77428505 604.52726545 980.77118785 603.17686462 980.76799679 C601.76756669 980.77173364 600.35827082 980.7763353 598.94897825 980.78172743 C595.07635789 980.79396856 591.20382385 980.79369566 587.33118856 980.79133868 C583.15452006 980.7909308 578.97787934 980.80196697 574.80122375 980.81145382 C566.61830941 980.82807091 558.43542387 980.83356369 550.25249406 980.83467858 C543.601266 980.83562872 536.95004745 980.83973732 530.2988224 980.84607983 C511.44344891 980.86369421 492.58809819 980.87291839 473.7327164 980.87141888 C472.20778088 980.87129901 472.20778088 980.87129901 470.65203857 980.87117672 C469.63417431 980.87109496 468.61631005 980.8710132 467.56760142 980.87092896 C451.07070907 980.87011601 434.57390801 980.88925531 418.07704207 980.91745345 C401.14021277 980.9461753 384.203428 980.95999413 367.26657373 980.9582659 C357.75699879 980.95760175 348.24751955 980.96310481 338.73796654 980.984622 C330.64137626 981.0028246 322.54492508 981.00718873 314.44832321 980.99360316 C310.31768147 980.98706881 306.18730664 980.98697296 302.05669022 981.00430965 C298.27342631 981.02002509 294.49064127 981.01719276 290.70738915 980.99974139 C288.69440918 980.99521493 286.68141444 981.01034082 284.66849202 981.02622068 C275.96988657 980.9597795 270.25601429 980.04863876 263.89544678 973.68807125 C260.02598657 968.04971496 258.33457492 963.24323935 258.30389404 956.40706539 C258.29359917 955.40068272 258.29359917 955.40068272 258.28309631 954.37396908 C258.26494116 952.17766726 258.26864925 949.98208753 258.27435303 947.7857275 C258.26978575 946.24547757 258.26447856 944.70522968 258.25846863 943.1649847 C258.24955969 939.94481253 258.25193513 936.72488866 258.26190186 933.50472164 C258.27338841 929.39466931 258.25317437 925.28547659 258.22398472 921.17553711 C258.20556683 917.99689012 258.20592622 914.81844702 258.21162224 911.63976002 C258.21177477 910.12521757 258.20578684 908.6106607 258.19333076 907.09616947 C258.12859162 897.93526565 258.24861628 890.77439134 264.41888428 883.47713375 C265.24259521 882.80811031 265.24259521 882.80811031 266.08294678 882.12557125 C266.62693115 881.66408688 267.17091553 881.2026025 267.73138428 880.72713375 C272.64608694 877.6772985 277.4075443 877.25385706 283.090271 877.27352047 C284.17674014 877.27315886 284.17674014 877.27315886 285.28515816 877.27278996 C287.61111201 877.27427319 289.93673837 877.28945994 292.26263428 877.30525875 C293.70607347 877.30820227 295.14951479 877.31024081 296.59295654 877.31136227 C301.92298601 877.32181386 307.25296967 877.34973642 312.58294678 877.37557125 C324.50419678 877.41682125 336.42544678 877.45807125 348.70794678 877.50057125 C348.70794678 846.48057125 348.70794678 815.46057125 348.70794678 783.50057125 C350.68794678 783.50057125 352.66794678 783.50057125 354.70794678 783.50057125 C354.87810303 782.87150875 355.04825928 782.24244625 355.22357178 781.59432125 C355.46591553 780.73838375 355.70825928 779.88244625 355.95794678 779.00057125 C356.18997803 778.16525875 356.42200928 777.32994625 356.66107178 776.46932125 C357.99953035 772.67369246 359.90804293 769.10037895 361.70794678 765.50057125 C370.28794678 765.50057125 378.86794678 765.50057125 387.70794678 765.50057125 C388.69794678 767.91369625 389.68794678 770.32682125 390.70794678 772.81307125 C391.02118896 773.56886471 391.33443115 774.32465816 391.65716553 775.10335445 C392.85165521 778.05284337 393.70794678 780.29033245 393.70794678 783.50057125 C397.66794678 783.50057125 401.62794678 783.50057125 405.70794678 783.50057125 C404.77788818 781.42002438 404.77788818 781.42002438 403.82904053 779.29744625 C397.29388432 764.59648306 391.0344072 749.79784357 384.92449951 734.91561031 C381.78315151 727.29125224 378.54204258 719.81008617 374.70794678 712.50057125 C372.33305328 718.1711244 369.95848806 723.84181489 367.58413696 729.51259518 C366.33861355 732.4870384 365.09274599 735.46133731 363.84686279 738.43562984 C358.56685889 751.04296935 358.56685889 751.04296935 353.32122803 763.66463375 C352.85700439 764.78482906 352.39278076 765.90502438 351.91448975 767.059165 C351.08714955 769.05827868 350.26185408 771.05824018 349.43890381 773.059165 C349.08296143 773.91896969 348.72701904 774.77877438 348.36029053 775.66463375 C347.91157593 776.75445553 347.91157593 776.75445553 347.45379639 777.86629391 C346.70794678 779.50057125 346.70794678 779.50057125 345.70794678 780.50057125 C343.11435356 780.58908654 340.54754986 780.6158307 337.95404053 780.5982275 C337.1785939 780.59681255 336.40314728 780.59539761 335.60420227 780.59393978 C333.11791183 780.5883247 330.63171017 780.57576971 328.14544678 780.56307125 C326.46380745 780.55805819 324.78216672 780.55349495 323.1005249 780.54939938 C318.96963112 780.53835038 314.83880402 780.5210757 310.70794678 780.50057125 C311.33596827 776.77020257 312.39650646 773.56059866 313.88519287 770.08699703 C314.5612709 768.49977337 314.5612709 768.49977337 315.25100708 766.88048458 C315.98379379 765.18035717 315.98379379 765.18035717 316.73138428 763.44588375 C317.23336334 762.27097378 317.73534241 761.0960638 318.25253296 759.8855505 C319.58534954 756.76618194 320.92389622 753.64930461 322.26367188 750.53291988 C323.61835567 747.37908925 324.96761176 744.22293909 326.31732178 741.0669775 C328.72520241 735.43885149 331.13809584 729.81289041 333.55383301 724.18813229 C334.9402261 720.95966717 336.32444726 717.73027721 337.70794678 714.50057125 C333.74794678 714.50057125 329.78794678 714.50057125 325.70794678 714.50057125 C325.61714844 715.29350582 325.5263501 716.08644039 325.43280029 716.90340328 C324.50144767 721.52534653 322.8509544 725.68436964 321.11029053 730.05525875 C320.75656876 730.95680691 320.40284698 731.85835506 320.03840637 732.78722286 C318.91288975 735.65219403 317.7792979 738.51388973 316.64544678 741.37557125 C315.87863477 743.32327699 315.11235279 745.27119149 314.34661865 747.21932125 C312.47319185 751.98217778 310.5925187 756.74211424 308.70794678 761.50057125 C306.61357624 759.40620071 305.99330362 758.07467746 304.92034912 755.35799313 C304.5801474 754.50370724 304.23994568 753.64942135 303.88943481 752.76924801 C303.3471373 751.38328426 303.3471373 751.38328426 302.79388428 749.96932125 C302.41938141 749.02246456 302.04487854 748.07560787 301.6590271 747.10005856 C300.86813936 745.09701822 300.07982602 743.09295978 299.29388428 741.08797359 C298.08689566 738.0106393 296.87072898 734.9370531 295.65325928 731.8638525 C294.88708588 729.92005815 294.12144281 727.97605467 293.35638428 726.03182125 C292.99080414 725.10784542 292.625224 724.18386959 292.24856567 723.23189449 C291.91466827 722.3776086 291.58077087 721.52332272 291.23675537 720.64314938 C290.94078461 719.88973263 290.64481384 719.13631588 290.33987427 718.36006832 C289.70794678 716.50057125 289.70794678 716.50057125 289.70794678 714.50057125 C285.74794678 714.50057125 281.78794678 714.50057125 277.70794678 714.50057125 C278.4839624 716.28334469 279.25997803 718.06611813 280.05950928 719.902915 C283.62156854 728.09670929 287.16887921 736.29682186 290.70794678 744.50057125 C291.19880768 745.63788692 291.19880768 745.63788692 291.69958496 746.79817867 C293.66698642 751.35882531 295.62751604 755.92233427 297.57946777 760.48961544 C298.20619439 761.95386784 298.83481328 763.41731178 299.46533203 764.87993526 C300.3495581 766.93230006 301.22686446 768.98748893 302.10247803 771.04354 C302.85815063 772.80734005 302.85815063 772.80734005 303.62908936 774.60677242 C304.70794678 777.50057125 304.70794678 777.50057125 304.70794678 780.50057125 C264.41791504 780.54638045 224.1278867 780.58160658 183.83783411 780.60270191 C179.07782279 780.60520323 174.31781153 780.60779188 169.55780029 780.61043453 C168.1363921 780.61122146 168.1363921 780.61122146 166.68626859 780.61202429 C151.3564422 780.62071943 136.02663086 780.63648449 120.69681338 780.65487684 C104.95906884 780.6736007 89.22133217 780.68469323 73.48357695 780.68874824 C63.77786964 780.69148814 54.07220487 780.70013213 44.36651065 780.71640418 C37.7048261 780.72700175 31.04316344 780.73016561 24.38147108 780.72757401 C20.54195121 780.72629702 16.70250553 780.72821102 12.86299896 780.7389822 C8.68987318 780.75060309 4.51690366 780.74652534 0.34376526 780.74108028 C-0.85568936 780.74690597 -2.05514398 780.75273165 -3.29094571 780.75873387 C-26.4903143 780.67723964 -47.89344551 773.03722104 -64.84967041 756.95467281 C-81.08475347 740.58768657 -90.42358931 718.41473768 -90.5617786 695.32496527 C-90.55766797 694.3493027 -90.55355733 693.37364012 -90.54932213 692.36841202 C-90.5528282 691.29852623 -90.55633428 690.22864044 -90.5599466 689.12633386 C-90.56922647 685.55289176 -90.56434604 681.97961385 -90.55947876 678.40616512 C-90.56321673 675.81357382 -90.56781883 673.22098365 -90.5732094 670.62839526 C-90.58348848 664.99742451 -90.58635685 659.36648812 -90.58429718 653.73550892 C-90.58124176 645.36167083 -90.58958312 636.98787064 -90.60004643 628.61403993 C-90.61937143 612.78636944 -90.62501409 596.95871192 -90.62616055 581.13103101 C-90.62708022 568.90650365 -90.63119998 556.68198135 -90.6375618 544.45745564 C-90.63935693 540.93650189 -90.64113656 537.41554813 -90.64291155 533.89459437 C-90.64335365 533.01923349 -90.64379575 532.14387262 -90.64425124 531.24198565 C-90.65655675 506.62528172 -90.66445266 482.00857955 -90.66356468 457.39187241 C-90.66353352 456.46408297 -90.66350237 455.53629354 -90.66347027 454.58038928 C-90.66330405 449.87814627 -90.66310597 445.17590327 -90.66290085 440.47366027 C-90.66286096 439.53980611 -90.66282107 438.60595196 -90.66277997 437.64379919 C-90.6626991 435.75531918 -90.6626155 433.86683917 -90.66252919 431.97835915 C-90.66130379 402.59926878 -90.67631605 373.22022458 -90.70367432 343.84114742 C-90.73441077 310.820874 -90.75160588 277.80063091 -90.74974787 244.78034228 C-90.74959861 241.25781675 -90.7495012 237.73529123 -90.74943924 234.21276569 C-90.74941593 233.34545431 -90.74939262 232.47814293 -90.74936861 231.58454939 C-90.74930712 217.64172934 -90.76206578 203.69894946 -90.77930377 189.75614135 C-90.79627643 175.73779271 -90.79822129 161.71950268 -90.78508513 147.70114944 C-90.77770699 139.37936338 -90.78131986 131.05775566 -90.80096981 122.73598858 C-90.81441852 116.51323969 -90.80682825 110.29067985 -90.79122336 104.06793972 C-90.78815284 101.55723214 -90.79178773 99.04650514 -90.80294351 96.53582046 C-90.87141621 80.02745254 -90.12447989 64.89886847 -82.66705322 49.81307125 C-82.33004395 49.11520504 -81.99303467 48.41733883 -81.64581299 47.69832516 C-72.92952517 30.37645765 -58.42254471 16.614431 -41.04205322 8.18807125 C-40.41250732 7.87490963 -39.78296143 7.56174801 -39.13433838 7.23909664 C-26.61973494 1.46869651 -13.62806544 -0.09526456 0 0 Z M27.70794678 118.50057125 C27.70794678 297.69057125 27.70794678 476.88057125 27.70794678 661.50057125 C120.76794678 661.50057125 213.82794678 661.50057125 309.70794678 661.50057125 C308.70794678 696.50057125 308.70794678 696.50057125 304.70794678 702.50057125 C301.46813551 704.90966168 298.69116859 705.93153956 294.70794678 706.50057125 C294.70794678 709.80057125 294.70794678 713.10057125 294.70794678 716.50057125 C302.02725106 717.11051327 306.81655133 714.86625843 312.45794678 710.25057125 C317.91270411 703.58364562 319.86429922 697.08177012 319.80560303 688.5513525 C319.80418808 687.77873577 319.80277313 687.00611904 319.80131531 686.21008968 C319.79572144 683.74437736 319.7831701 681.2787561 319.77044678 678.81307125 C319.76543098 677.14054652 319.76086821 675.46802037 319.7567749 673.79549313 C319.74660525 669.69712259 319.72702872 665.59894877 319.70794678 661.50057125 C329.27794678 661.83057125 338.84794678 662.16057125 348.70794678 662.50057125 C347.55294678 665.22049313 346.39794678 667.940415 345.20794678 670.74275875 C344.0951089 673.3701634 342.98349951 675.99808454 341.87200928 678.62605953 C341.09725297 680.45603133 340.32121519 682.28546113 339.54388428 684.11434078 C338.42855059 686.73907377 337.31779879 689.36570403 336.20794678 691.99275875 C335.85796631 692.81363979 335.50798584 693.63452084 335.1473999 694.48027706 C333.36164957 698.35451939 333.36164957 698.35451939 332.70794678 702.50057125 C336.00794678 702.50057125 339.30794678 702.50057125 342.70794678 702.50057125 C343.71214315 700.04387655 344.71145179 697.58538772 345.70794678 695.12557125 C346.13720459 694.07756344 346.13720459 694.07756344 346.57513428 693.00838375 C348.15319076 689.37171164 348.15319076 689.37171164 348.70794678 685.50057125 C357.61794678 685.50057125 366.52794678 685.50057125 375.70794678 685.50057125 C376.03794678 687.15057125 376.36794678 688.80057125 376.70794678 690.50057125 C377.51959511 692.62150148 378.37588406 694.72575824 379.27044678 696.81307125 C379.72548584 697.88170406 380.1805249 698.95033688 380.64935303 700.0513525 C380.99868896 700.85959469 381.3480249 701.66783688 381.70794678 702.50057125 C385.33794678 702.50057125 388.96794678 702.50057125 392.70794678 702.50057125 C390.30846022 693.5782927 386.74236238 685.30122676 383.02044678 676.87557125 C382.40728995 675.47606227 381.79465579 674.07632418 381.18255615 672.6763525 C379.6979712 669.28129354 378.20280539 665.89119208 376.70794678 662.50057125 C385.94794678 662.17057125 395.18794678 661.84057125 404.70794678 661.50057125 C404.70794678 675.03057125 404.70794678 688.56057125 404.70794678 702.50057125 C408.00794678 702.50057125 411.30794678 702.50057125 414.70794678 702.50057125 C414.71205566 701.67331539 414.71616455 700.84605953 414.72039795 699.99373531 C414.75329292 696.2452872 414.82393593 692.49847315 414.89544678 688.75057125 C414.90124756 687.44861813 414.90704834 686.146665 414.9130249 684.80525875 C414.95653076 682.92967281 414.95653076 682.92967281 415.00091553 681.01619625 C415.01662598 679.86409664 415.03233643 678.71199703 415.04852295 677.52498531 C415.89387546 673.64781876 417.44830223 672.61469006 420.70794678 670.50057125 C420.97583008 671.07331783 421.24371338 671.64606441 421.51971436 672.23616695 C422.75039259 674.58145986 424.14408259 676.6032746 425.71966553 678.73104 C426.61008545 679.9366357 426.61008545 679.9366357 427.51849365 681.16658688 C428.13788818 681.99867672 428.75728271 682.83076656 429.39544678 683.68807125 C429.99550537 684.50082516 430.59556396 685.31357906 431.21380615 686.15096188 C432.42613105 687.78779581 433.64662162 689.41861322 434.87518311 691.04329586 C436.11513882 692.70576479 437.32280013 694.39273276 438.49969482 696.10042477 C441.82120316 701.00469909 441.82120316 701.00469909 447.01654053 703.3794775 C448.04907959 703.27506344 449.08161865 703.17064938 450.14544678 703.06307125 C451.19603271 702.98186031 452.24661865 702.90064938 453.32904053 702.8169775 C454.11407959 702.71256344 454.89911865 702.60814938 455.70794678 702.50057125 C453.90941355 698.32502919 451.12924973 694.90588225 448.39544678 691.31307125 C447.6137915 690.27533566 447.6137915 690.27533566 446.81634521 689.2166357 C443.91761628 685.37706858 440.98570173 681.56547395 438.02435303 677.77400875 C437.42856445 677.00725826 436.83277588 676.24050777 436.21893311 675.45052242 C435.05980034 673.96131082 433.89441653 672.47694031 432.72235107 670.9978857 C431.93404907 669.98407833 431.93404907 669.98407833 431.12982178 668.94979 C430.42744385 668.05779903 430.42744385 668.05779903 429.71087646 667.14778805 C428.70794678 665.50057125 428.70794678 665.50057125 428.70794678 662.50057125 C440.58794678 662.17057125 452.46794678 661.84057125 464.70794678 661.50057125 C464.70794678 665.79057125 464.70794678 670.08057125 464.70794678 674.50057125 C467.78749287 685.51587075 472.81504609 693.51881735 482.70794678 699.50057125 C490.85769774 704.00180592 499.0955196 704.74490047 508.21966553 703.027915 C517.80275684 700.23493725 525.89413717 694.01582932 530.92669678 685.41854 C534.01178789 679.47973961 534.83303814 675.01043861 534.77044678 668.25057125 C534.75691162 666.35564938 534.75691162 666.35564938 534.74310303 664.42244625 C534.73150146 663.4582275 534.7198999 662.49400875 534.70794678 661.50057125 C538.66794678 661.50057125 542.62794678 661.50057125 546.70794678 661.50057125 C546.70794678 675.03057125 546.70794678 688.56057125 546.70794678 702.50057125 C551.14232178 702.58307125 555.57669678 702.66557125 560.14544678 702.75057125 C561.52530762 702.78698727 562.90516846 702.82340328 564.32684326 702.86092281 C573.29958605 702.94135512 579.67010533 701.85112054 586.64544678 696.06307125 C590.64297479 691.09644554 591.21253219 686.44853541 591.08685303 680.2232275 C590.39562163 675.25633795 587.90512975 672.22950212 584.03997803 669.18807125 C582.6374364 668.22861285 581.17701985 667.3546835 579.70794678 666.50057125 C582.80830478 663.1123991 585.23478678 662.20477809 589.68043232 661.99276257 C591.75386347 661.96859405 593.82762077 661.96655979 595.90113831 661.98158932 C597.04196365 661.97409161 598.182789 661.96659389 599.35818481 661.95886898 C602.52680135 661.94206816 605.69483436 661.94319867 608.86346532 661.95178157 C612.3320367 661.95673773 615.80050018 661.93848715 619.26903057 661.92317486 C626.00211006 661.89692473 632.73505159 661.89117969 639.4681759 661.89259361 C647.25631125 661.89334475 655.04422813 661.86860086 662.83233643 661.84383297 C683.39499561 661.79104088 703.95773199 661.77293356 724.52044678 661.75057125 C770.45232178 661.66807125 816.38419678 661.58557125 863.70794678 661.50057125 C863.70794678 482.31057125 863.70794678 303.12057125 863.70794678 118.50057125 C587.82794678 118.50057125 311.94794678 118.50057125 27.70794678 118.50057125 Z " fill="#252525" transform="translate(554.2920532226563,259.4994287490845)"/>
<path d="M0 0 C0.86109375 0.25346191 1.7221875 0.50692383 2.609375 0.76806641 C33.73493917 10.07026799 60.76666891 24.94920316 84.67578125 46.921875 C86.26745209 48.34501599 87.90810775 49.71468903 89.5859375 51.03515625 C91.76306393 52.80715397 93.50687871 54.55032542 95.3125 56.6875 C97.10030167 58.78921974 98.88178303 60.87395409 100.76953125 62.88671875 C112.71259252 75.68465178 122.04343331 90.48034234 130 106 C130.35400879 106.67820801 130.70801758 107.35641602 131.07275391 108.05517578 C140.63685753 126.54158725 146.73486986 146.48021192 150 167 C150.17660156 168.02464355 150.35320312 169.04928711 150.53515625 170.10498047 C151.91531628 178.69060361 152.31150273 187.03332228 152.26074219 195.70361328 C152.25004206 197.86649817 152.26070039 200.02854658 152.2734375 202.19140625 C152.32960984 259.24795123 126.55276389 309.58680863 87.5 349.6875 C67.09013229 369.73803905 42.33388971 383.40277977 16 394 C14.94039062 394.43183594 13.88078125 394.86367188 12.7890625 395.30859375 C2.01476323 399.46624377 -9.31550155 401.85511579 -20.6875 403.6875 C-21.78964844 403.86647827 -21.78964844 403.86647827 -22.9140625 404.04907227 C-74.00110098 411.80976803 -127.75340785 400.86624856 -170.3125 370.98828125 C-171.6428125 370.00408203 -171.6428125 370.00408203 -173 369 C-173.52207031 368.61634277 -174.04414062 368.23268555 -174.58203125 367.83740234 C-181.31576362 362.86398116 -187.70215883 357.63365346 -193.859375 351.953125 C-195.59341258 350.37097392 -197.34699382 348.89053119 -199.1875 347.4375 C-202.85904348 344.25549565 -205.86515024 340.70153414 -209 337 C-209.8146875 336.08476563 -210.629375 335.16953125 -211.46875 334.2265625 C-237.74138979 304.48902912 -255.35663972 265.47668014 -260 226 C-260.14598633 224.78014404 -260.14598633 224.78014404 -260.29492188 223.53564453 C-265.9741572 169.63325676 -251.66426645 114.71433013 -217.52197266 72.15771484 C-214.42730706 68.36667245 -211.22994937 64.67599 -208 61 C-207.35289062 60.23042969 -206.70578125 59.46085937 -206.0390625 58.66796875 C-202.65075554 54.65872771 -199.07249014 51.14503902 -195.0625 47.7578125 C-193.72334765 46.61648947 -192.4086429 45.44560272 -191.125 44.2421875 C-178.87204046 32.80290105 -164.75991652 23.751621 -149.94824219 16.02099609 C-148.27942846 15.14643732 -146.62626009 14.24213574 -144.9765625 13.33203125 C-129.19520234 4.89872561 -111.47025045 -0.41207991 -94 -4 C-93.21995605 -4.16371094 -92.43991211 -4.32742188 -91.63623047 -4.49609375 C-62.16144116 -10.40203373 -28.71469757 -8.64589468 0 0 Z " fill="#262626" transform="translate(1054,450)"/>
<path d="M0 0 C18.15 0 36.3 0 55 0 C55 28.71 55 57.42 55 87 C36.85 87 18.7 87 0 87 C-2.55020186 75.099058 -4.14551236 64.70582108 -4.203125 52.7421875 C-4.20882507 51.79546173 -4.21452515 50.84873596 -4.22039795 49.87332153 C-4.2297799 47.88170464 -4.23635457 45.89007271 -4.24023438 43.8984375 C-4.2499084 40.90335984 -4.28098493 37.90897894 -4.3125 34.9140625 C-4.45362185 8.90724371 -4.45362185 8.90724371 0 0 Z " fill="#FEFEFE" transform="translate(930,606)"/>
<path d="M0 0 C18.15 0 36.3 0 55 0 C58.585884 14.343536 59.32740766 28.09701265 59.26074219 42.80957031 C59.24998675 45.62847254 59.2607222 48.4467415 59.2734375 51.265625 C59.28369988 63.57804605 58.93034422 75.20896733 55 87 C36.85 87 18.7 87 0 87 C0 58.29 0 29.58 0 0 Z " fill="#FEFEFE" transform="translate(1014,606)"/>
<path d="M0 0 C15.51 0 31.02 0 47 0 C47 5.58112557 46.78469826 10.24935443 46.015625 15.67578125 C44.82240221 24.93900234 44.69567395 34.12830338 44.73925781 43.45776367 C44.75003098 46.19537272 44.73926253 48.93233183 44.7265625 51.66992188 C44.72049852 60.63339217 45.01447691 69.23691997 46.57128906 78.08325195 C47 81 47 81 47 87 C31.49 87 15.98 87 0 87 C-4.54902501 72.21566871 -6.37342945 60.07951338 -6.37060547 44.9387207 C-6.37496381 42.33412487 -6.41135774 39.7312494 -6.44921875 37.12695312 C-6.53620785 24.05180992 -4.88255935 12.20639838 0 0 Z " fill="#FEFEFE" transform="translate(851,606)"/>
<path d="M0 0 C15.18 0 30.36 0 46 0 C50.24673265 14.86356428 52.39116899 27.38430042 52.3125 42.625 C52.31134186 43.32255402 52.31018372 44.02010803 52.30899048 44.73880005 C52.26033787 59.59866586 50.72216688 72.83349937 46 87 C30.82 87 15.64 87 0 87 C1 72 1 72 1.55078125 66.2109375 C2.17783562 58.836581 2.18604161 51.46401526 2.18530273 44.06787109 C2.18746533 41.66355004 2.20562205 39.25970773 2.22460938 36.85546875 C2.23982855 24.34530836 1.1449477 12.59442469 0 0 Z " fill="#FDFDFD" transform="translate(1101,606)"/>
<path d="M0 0 C26 0 26 0 36 5 C40.93516876 10.02175067 43.12904271 13.04093984 43.25 20.1875 C43.15070286 28.55052545 40.72321979 33.98328175 35 40 C34.01 40.495 34.01 40.495 33 41 C34.3214741 44.58964618 35.91504429 47.61591165 38.0390625 50.79296875 C38.61914062 51.67017578 39.19921875 52.54738281 39.796875 53.45117188 C40.70179688 54.8056543 40.70179688 54.8056543 41.625 56.1875 C42.8296847 57.99071475 44.03042282 59.79657447 45.2265625 61.60546875 C45.75846191 62.40106201 46.29036133 63.19665527 46.83837891 64.01635742 C48 66 48 66 48 68 C44.17425305 68.62263513 40.80826606 68.81015958 37 68 C32.88654967 64.37472179 30.65728684 59.3263372 28.25390625 54.4765625 C26.45075651 51.0035124 24.66948945 47.9042654 22 45 C17.31409979 43.55652729 13.98976529 43.74011639 9 44 C9 51.92 9 59.84 9 68 C6.03 68 3.06 68 0 68 C0 45.56 0 23.12 0 0 Z " fill="#FCFCFC" transform="translate(964,974)"/>
<path d="M0 0 C0 24.09 0 48.18 0 73 C-15.18 73 -30.36 73 -46 73 C-45.10259393 68.51296966 -43.77630565 64.76005312 -41.9375 60.625 C-41.46787842 59.56889526 -41.46787842 59.56889526 -40.98876953 58.49145508 C-35.61207473 46.57449221 -14.53937388 0 0 0 Z " fill="#F8F8F8" transform="translate(984,503)"/>
<path d="M0 0 C19.27649652 16.5227113 32.32085943 38.96581991 42.625 61.9375 C42.96805176 62.70102783 43.31110352 63.46455566 43.66455078 64.2512207 C44.99912281 67.31503367 46 69.62225361 46 73 C30.82 73 15.64 73 0 73 C0 48.91 0 24.82 0 0 Z " fill="#F9F9F9" transform="translate(1015,503)"/>
<path d="M0 0 C15.18 0 30.36 0 46 0 C42.87617977 8.74669666 40.02557143 16.58482909 35.6875 24.625 C35.20676025 25.52669922 34.72602051 26.42839844 34.23071289 27.35742188 C30.53324989 34.20398225 26.60821395 40.71930685 22 47 C21.61489258 47.5249707 21.22978516 48.04994141 20.83300781 48.59082031 C15.7958743 55.40952523 10.49760935 61.86460577 4.71484375 68.07421875 C2.94436061 69.89392569 2.94436061 69.89392569 2 72 C1.34 72 0.68 72 0 72 C0 48.24 0 24.48 0 0 Z " fill="#FCFCFC" transform="translate(1015,725)"/>
<path d="M0 0 C15.18 0 30.36 0 46 0 C46 23.76 46 47.52 46 72 C24.96883166 53.97328428 9.73571553 27.77408078 0 2 C0 1.34 0 0.68 0 0 Z " fill="#FCFCFC" transform="translate(938,725)"/>
<path d="M0 0 C13.53 0 27.06 0 41 0 C25.65380575 28.13468946 0.45839525 54.26082683 -30 66 C-30.66 65.67 -31.32 65.34 -32 65 C-31.41734375 64.11183594 -30.8346875 63.22367188 -30.234375 62.30859375 C-17.59331664 42.73770406 -7.36961141 22.10883423 0 0 Z " fill="#FBFBFB" transform="translate(1093,724)"/>
<path d="M0 0 C1 2 1 2 0.44140625 3.9453125 C0.00634766 5.02425781 0.00634766 5.02425781 -0.4375 6.125 C-0.86869141 7.21167969 -0.86869141 7.21167969 -1.30859375 8.3203125 C-1.53675781 8.87460937 -1.76492188 9.42890625 -2 10 C-2.68964844 9.7834375 -3.37929687 9.566875 -4.08984375 9.34375 C-13.77723087 6.47341307 -23.93258273 5.19061197 -33.203125 10.1875 C-38.14865261 13.55778548 -41.60710232 17.09099928 -43 23 C-43.87231014 30.02744655 -44.61993483 38.34341082 -41 44.6875 C-37.37233496 49.28945222 -32.56507351 53.1449755 -27 55 C-24.56404245 55.09619345 -22.12535133 55.12982265 -19.6875 55.125 C-18.39199219 55.12757812 -17.09648438 55.13015625 -15.76171875 55.1328125 C-11.6056456 55.06736363 -11.6056456 55.06736363 -6 54 C-6 49.71 -6 45.42 -6 41 C-10.62 41 -15.24 41 -20 41 C-20 37.7 -20 34.4 -20 31 C-12.08 31 -4.16 31 4 31 C4 40.57 4 50.14 4 60 C-7.78366151 64.90985896 -19.20767109 68.54021435 -31.90625 65.24609375 C-34.06796544 64.30219403 -36.0095121 63.26151536 -38 62 C-39.051875 61.401875 -40.10375 60.80375 -41.1875 60.1875 C-48.4528206 54.53669509 -53.54002164 47.17700686 -55 38 C-55.94564807 26.3248835 -53.56606682 16.09348876 -46 7 C-34.2965773 -5.30782481 -14.9957587 -8.26727945 0 0 Z " fill="#F7F7F7" transform="translate(1077,977)"/>
<path d="M0 0 C0.99 0.495 0.99 0.495 2 1 C1.40574219 1.92296875 0.81148437 2.8459375 0.19921875 3.796875 C-11.22919929 21.70279714 -20.53449499 39.65769199 -28.02954102 59.56835938 C-28.90486684 61.76162862 -29.94391049 63.88782097 -31 66 C-44.2 66 -57.4 66 -71 66 C-56.23082036 38.92317066 -30.24292887 10.08097629 0 0 Z " fill="#FCFCFC" transform="translate(936,509)"/>
<path d="M0 0 C4.69619853 0.58589809 8.3952235 2.61918581 12.4375 4.9375 C13.13979736 5.33864014 13.84209473 5.73978027 14.56567383 6.15307617 C26.96799059 13.36437484 37.83492471 21.89032909 48 32 C48.48065918 32.47663086 48.96131836 32.95326172 49.45654297 33.44433594 C58.98280561 43.02650002 66.95912422 53.91824843 73 66 C59.8 66 46.6 66 33 66 C29 56 29 56 27.578125 52.3046875 C20.41338967 33.80281216 10.83967434 16.59825133 0 0 Z " fill="#FCFCFC" transform="translate(1061,509)"/>
<path d="M0 0 C13.53 0 27.06 0 41 0 C41.99 3.3 42.98 6.6 44 10 C50.77320352 28.79958641 59.63131436 46.3725852 71.28515625 62.59375 C73 65 73 65 74 67 C68.83247598 65.51201186 64.52689627 63.22529594 59.9375 60.5 C59.19234131 60.05857666 58.44718262 59.61715332 57.67944336 59.16235352 C46.83359222 52.6139808 37.19180944 44.71033371 28 36 C27.10539063 35.15824219 26.21078125 34.31648437 25.2890625 33.44921875 C15.3360449 23.81681657 6.93002934 13.02428932 0 1 C0 0.67 0 0.34 0 0 Z " fill="#FBFBFB" transform="translate(865,725)"/>
<path d="M0 0 C6.81761894 -0.0252689 13.63522589 -0.04283244 20.45288086 -0.05493164 C22.77417451 -0.05997333 25.09546497 -0.06680651 27.41674805 -0.07543945 C30.74528795 -0.08751225 34.07378602 -0.09322979 37.40234375 -0.09765625 C38.44712387 -0.10281754 39.49190399 -0.10797882 40.56834412 -0.11329651 C41.52926468 -0.11337204 42.49018524 -0.11344757 43.48022461 -0.11352539 C44.33071884 -0.115746 45.18121307 -0.11796661 46.05747986 -0.12025452 C48 0 48 0 49 1 C49.96745788 9.38924194 48.96815756 16.08518455 44 23 C39.29706555 28.11064852 34.80924916 31.56294847 27.765625 32.37109375 C17.98441768 32.55584989 12.26845599 31.07874684 5.1875 24.3125 C0.58248626 17.33919349 -2.10963036 10.44046697 -1 2 C-0.67 1.34 -0.34 0.68 0 0 Z " fill="#282828" transform="translate(1030,921)"/>
<path d="M0 0 C14.48011207 -0.40981449 14.48011207 -0.40981449 20 3 C22.80168958 6.24406162 23.9043675 8.23494 24.4375 12.5 C23.94881197 16.40950424 23.22104927 18.74246106 21 22 C16.3773044 24.9235798 12.45939749 25.38749566 7.125 25.1875 C4.77375 25.125625 2.4225 25.06375 0 25 C0 16.75 0 8.5 0 0 Z " fill="#2E2E2E" transform="translate(973,983)"/>
<path d="M0 0 C2.51625 -0.061875 5.0325 -0.12375 7.625 -0.1875 C8.79603271 -0.22846802 8.79603271 -0.22846802 9.99072266 -0.27026367 C14.71841279 -0.32607418 17.91835974 0.37083533 22 3 C24.4915904 6.7373856 24.45793285 8.57331583 24 13 C21.81604 16.50993571 19.86768143 18.58142605 16 20 C13.20329698 20.14039674 10.53857997 20.18855578 7.75 20.125 C5.1925 20.08375 2.635 20.0425 0 20 C0 13.4 0 6.8 0 0 Z " fill="#2A2A2A" transform="translate(1111,933)"/>
<path d="M0 0 C0.66 0 1.32 0 2 0 C3.3417678 3.26743656 4.67194359 6.53946908 6 9.8125 C6.3815625 10.74126953 6.763125 11.67003906 7.15625 12.62695312 C7.5171875 13.51962891 7.878125 14.41230469 8.25 15.33203125 C8.58515625 16.15421143 8.9203125 16.9763916 9.265625 17.82348633 C10 20 10 20 10 23 C3.73 23 -2.54 23 -9 23 C-6.03 15.41 -3.06 7.82 0 0 Z " fill="#313131" transform="translate(928,994)"/>
<path d="M0 0 C2.31 0 4.62 0 7 0 C7.84266711 1.74552473 8.67380038 3.4966208 9.5 5.25 C9.9640625 6.22453125 10.428125 7.1990625 10.90625 8.203125 C12 11 12 11 12 15 C6.06 15 0.12 15 -6 15 C-1.125 2.25 -1.125 2.25 0 0 Z " fill="#2C2C2C" transform="translate(913,921)"/>
</svg>
